<svg xmlns="http://www.w3.org/2000/svg" viewBox="0 0 122.13 111.54"><defs><style>.cls-1{fill:#6cc;}.cls-2{fill:#1a1a1a;}</style></defs><title>logo</title><g id="Layer_2" data-name="Layer 2"><g id="Content"><circle class="cls-1" cx="111.33" cy="80.98" r="10.8"/><path class="cls-2" d="M54.35,54.33l43,55.64c3.54,4.58,9.86-1.84,6.36-6.36L60.72,48c-3.54-4.58-9.86,1.84-6.36,6.36l43,55.64c3.54,4.58,9.86-1.84,6.36-6.36L60.72,48C57.18,43.39,50.85,49.8,54.35,54.33Z"/><path class="cls-2" d="M55.15,97.15H76.78c3.3,0,6-.06,8.18-3.06A57.85,57.85,0,0,0,88,88.77L109.5,51.6a6.07,6.07,0,0,0,0-6.06L88,8.38A57.9,57.9,0,0,0,85,3.06C82.73,0,80.1,0,76.78,0H55.15c-7.72,0-7.73,12,0,12H79.73L74.55,9,99.13,51.6V45.55L74.55,88.12l5.18-3H55.15c-7.72,0-7.73,12,0,12Z"/><path class="cls-2" d="M55.15,0H33.52c-3.3,0-6,.06-8.18,3.06a57.85,57.85,0,0,0-3.07,5.32L.81,45.55a6.07,6.07,0,0,0,0,6.06L22.27,88.77a57.9,57.9,0,0,0,3.07,5.32c2.23,3.05,4.87,3.06,8.18,3.06H55.15c7.72,0,7.73-12,0-12H30.57l5.18,3L11.17,45.55V51.6L35.75,9l-5.18,3H55.15c7.72,0,7.73-12,0-12Z"/></g></g></svg>